
Alice In Chains - Live Facelift (1991) & The Nona Tapes (1995) [VHSRip] [DivX]





Live Facelift is a video released in 1991 by the band Alice in Chains containing live footage of songs off of their debut album, Facelift. The video has been certified gold by the RIAA with excess sales of 50,000 copies.

"Man in the Box"
"Real Thing"
"Love, Hate, Love"
"Sea of Sorrow"
"Bleed the Freak"
"We Die Young" (videoclip)
"Man in the Box" (videoclip)
"Sea of Sorrow" (videoclip)





The Nona Tapes is a 1995 mockumentary by the grunge band Alice in Chains. Because it is no longer for sale, original copies are considered a rarity, however, in 2006 Best Buy offered a DVD version for free for a limited time with purchases of The Essential Alice in Chains.

"Brush Away" Excerpt 1
"Brush Away" Excerpt 2
"Over Now" Excerpt 1
"Over Now" Excerpt 2
"Grind" Excerpt
"Over Now" Excerpt 3
"Head Creeps" Excerpt
"Heaven Beside You" Excerpt
"Grind" (Music Video)
"Heaven Beside You" (Outtake footage)



General
Format : MPEG-PS
File size : 1 024 MiB
Duration : 32s 630ms
Overall bit rate mode : Variable
Overall bit rate : 263 Mbps

Video
ID : 224 (0xE0)
Format : MPEG Video
Format version : Version 2
Format profile : Main@Main
Format settings, BVOP : Yes
Format settings, Matrix : Custom
Format settings, GOP : M=3, N=15
Duration : 32s 630ms
Bit rate mode : Variable
Bit rate : 258 Mbps
Maximum bit rate : 9 555 Kbps
Width : 704 pixels
Height : 480 pixels
Display aspect ratio : 4:3
Frame rate : 29.970 fps
Standard : NTSC
Color space : YUV
Chroma subsampling : 4:2:0
Bit depth : 8 bits
Scan type : Interlaced
Scan order : Top Field First
Compression mode : Lossy
Bits/(Pixel*Frame) : 25.451
Stream size : 1 003 MiB (98%)
Color primaries : SMPTE 170M
Transfer characteristics : SMPTE 170M
Matrix coefficients : SMPTE 170M

Audio
ID : 189 (0xBD)-128 (0x80)
Format : AC-3
Format/Info : Audio Coding 3
Mode extension : CM (complete main)
Format settings, Endianness : Big
Muxing mode : DVD-Video
Duration : 15s 803ms
Bit rate mode : Constant
Bit rate : 256 Kbps
Channel(s) : 2 channels
Channel positions : Front: L R
Sampling rate : 48.0 KHz
Bit depth : 16 bits
Compression mode : Lossy
Delay relative to video : -67ms
Stream size : 494 KiB (0%)

